<svg version="1.1" xmlns="http://www.w3.org/2000/svg" xmlns:xlink="http://www.w3.org/1999/xlink" width="789.72705078125" height="668"><defs/><g><text fill="#eeeeee" stroke="none" font-family="Arial" font-size="24px" font-style="normal" font-weight="normal" text-decoration="none" x="0" y="0">UNREGISTERED</text><text fill="#eeeeee" stroke="none" font-family="Arial" font-size="24px" font-style="normal" font-weight="normal" text-decoration="none" x="0" y="30">UNREGISTERED</text><text fill="#eeeeee" stroke="none" font-family="Arial" font-size="24px" font-style="normal" font-weight="normal" text-decoration="none" x="0" y="60">UNREGISTERED</text><text fill="#eeeeee" stroke="none" font-family="Arial" font-size="24px" font-style="normal" font-weight="normal" text-decoration="none" x="0" y="90">UNREGISTERED</text><text fill="#eeeeee" stroke="none" font-family="Arial" font-size="24px" font-style="normal" font-weight="normal" text-decoration="none" x="0" y="120">UNREGISTERED</text><text fill="#eeeeee" stroke="none" font-family="Arial" font-size="24px" font-style="normal" font-weight="normal" text-decoration="none" x="0" y="150">UNREGISTERED</text><text fill="#eeeeee" stroke="none" font-family="Arial" font-size="24px" font-style="normal" font-weight="normal" text-decoration="none" x="0" y="180">UNREGISTERED</text><text fill="#eeeeee" stroke="none" font-family="Arial" font-size="24px" font-style="normal" font-weight="normal" text-decoration="none" x="0" y="210">UNREGISTERED</text><text fill="#eeeeee" stroke="none" font-family="Arial" font-size="24px" font-style="normal" font-weight="normal" text-decoration="none" x="0" y="240">UNREGISTERED</text><text fill="#eeeeee" stroke="none" font-family="Arial" font-size="24px" font-style="normal" font-weight="normal" text-decoration="none" x="0" y="270">UNREGISTERED</text><text fill="#eeeeee" stroke="none" font-family="Arial" font-size="24px" font-style="normal" font-weight="normal" text-decoration="none" x="0" y="300">UNREGISTERED</text><text fill="#eeeeee" stroke="none" font-family="Arial" font-size="24px" font-style="normal" font-weight="normal" text-decoration="none" x="0" y="330">UNREGISTERED</text><text fill="#eeeeee" stroke="none" font-family="Arial" font-size="24px" font-style="normal" font-weight="normal" text-decoration="none" x="0" y="360">UNREGISTERED</text><text fill="#eeeeee" stroke="none" font-family="Arial" font-size="24px" font-style="normal" font-weight="normal" text-decoration="none" x="0" y="390">UNREGISTERED</text><text fill="#eeeeee" stroke="none" font-family="Arial" font-size="24px" font-style="normal" font-weight="normal" text-decoration="none" x="0" y="420">UNREGISTERED</text><text fill="#eeeeee" stroke="none" font-family="Arial" font-size="24px" font-style="normal" font-weight="normal" text-decoration="none" x="0" y="450">UNREGISTERED</text><text fill="#eeeeee" stroke="none" font-family="Arial" font-size="24px" font-style="normal" font-weight="normal" text-decoration="none" x="0" y="480">UNREGISTERED</text><text fill="#eeeeee" stroke="none" font-family="Arial" font-size="24px" font-style="normal" font-weight="normal" text-decoration="none" x="0" y="510">UNREGISTERED</text><text fill="#eeeeee" stroke="none" font-family="Arial" font-size="24px" font-style="normal" font-weight="normal" text-decoration="none" x="0" y="540">UNREGISTERED</text><text fill="#eeeeee" stroke="none" font-family="Arial" font-size="24px" font-style="normal" font-weight="normal" text-decoration="none" x="0" y="570">UNREGISTERED</text><text fill="#eeeeee" stroke="none" font-family="Arial" font-size="24px" font-style="normal" font-weight="normal" text-decoration="none" x="0" y="600">UNREGISTERED</text><text fill="#eeeeee" stroke="none" font-family="Arial" font-size="24px" font-style="normal" font-weight="normal" text-decoration="none" x="0" y="630">UNREGISTERED</text><text fill="#eeeeee" stroke="none" font-family="Arial" font-size="24px" font-style="normal" font-weight="normal" text-decoration="none" x="0" y="660">UNREGISTERED</text><text fill="#eeeeee" stroke="none" font-family="Arial" font-size="24px" font-style="normal" font-weight="normal" text-decoration="none" x="200" y="0">UNREGISTERED</text><text fill="#eeeeee" stroke="none" font-family="Arial" font-size="24px" font-style="normal" font-weight="normal" text-decoration="none" x="200" y="30">UNREGISTERED</text><text fill="#eeeeee" stroke="none" font-family="Arial" font-size="24px" font-style="normal" font-weight="normal" text-decoration="none" x="200" y="60">UNREGISTERED</text><text fill="#eeeeee" stroke="none" font-family="Arial" font-size="24px" font-style="normal" font-weight="normal" text-decoration="none" x="200" y="90">UNREGISTERED</text><text fill="#eeeeee" stroke="none" font-family="Arial" font-size="24px" font-style="normal" font-weight="normal" text-decoration="none" x="200" y="120">UNREGISTERED</text><text fill="#eeeeee" stroke="none" font-family="Arial" font-size="24px" font-style="normal" font-weight="normal" text-decoration="none" x="200" y="150">UNREGISTERED</text><text fill="#eeeeee" stroke="none" font-family="Arial" font-size="24px" font-style="normal" font-weight="normal" text-decoration="none" x="200" y="180">UNREGISTERED</text><text fill="#eeeeee" stroke="none" font-family="Arial" font-size="24px" font-style="normal" font-weight="normal" text-decoration="none" x="200" y="210">UNREGISTERED</text><text fill="#eeeeee" stroke="none" font-family="Arial" font-size="24px" font-style="normal" font-weight="normal" text-decoration="none" x="200" y="240">UNREGISTERED</text><text fill="#eeeeee" stroke="none" font-family="Arial" font-size="24px" font-style="normal" font-weight="normal" text-decoration="none" x="200" y="270">UNREGISTERED</text><text fill="#eeeeee" stroke="none" font-family="Arial" font-size="24px" font-style="normal" font-weight="normal" text-decoration="none" x="200" y="300">UNREGISTERED</text><text fill="#eeeeee" stroke="none" font-family="Arial" font-size="24px" font-style="normal" font-weight="normal" text-decoration="none" x="200" y="330">UNREGISTERED</text><text fill="#eeeeee" stroke="none" font-family="Arial" font-size="24px" font-style="normal" font-weight="normal" text-decoration="none" x="200" y="360">UNREGISTERED</text><text fill="#eeeeee" stroke="none" font-family="Arial" font-size="24px" font-style="normal" font-weight="normal" text-decoration="none" x="200" y="390">UNREGISTERED</text><text fill="#eeeeee" stroke="none" font-family="Arial" font-size="24px" font-style="normal" font-weight="normal" text-decoration="none" x="200" y="420">UNREGISTERED</text><text fill="#eeeeee" stroke="none" font-family="Arial" font-size="24px" font-style="normal" font-weight="normal" text-decoration="none" x="200" y="450">UNREGISTERED</text><text fill="#eeeeee" stroke="none" font-family="Arial" font-size="24px" font-style="normal" font-weight="normal" text-decoration="none" x="200" y="480">UNREGISTERED</text><text fill="#eeeeee" stroke="none" font-family="Arial" font-size="24px" font-style="normal" font-weight="normal" text-decoration="none" x="200" y="510">UNREGISTERED</text><text fill="#eeeeee" stroke="none" font-family="Arial" font-size="24px" font-style="normal" font-weight="normal" text-decoration="none" x="200" y="540">UNREGISTERED</text><text fill="#eeeeee" stroke="none" font-family="Arial" font-size="24px" font-style="normal" font-weight="normal" text-decoration="none" x="200" y="570">UNREGISTERED</text><text fill="#eeeeee" stroke="none" font-family="Arial" font-size="24px" font-style="normal" font-weight="normal" text-decoration="none" x="200" y="600">UNREGISTERED</text><text fill="#eeeeee" stroke="none" font-family="Arial" font-size="24px" font-style="normal" font-weight="normal" text-decoration="none" x="200" y="630">UNREGISTERED</text><text fill="#eeeeee" stroke="none" font-family="Arial" font-size="24px" font-style="normal" font-weight="normal" text-decoration="none" x="200" y="660">UNREGISTERED</text><text fill="#eeeeee" stroke="none" font-family="Arial" font-size="24px" font-style="normal" font-weight="normal" text-decoration="none" x="400" y="0">UNREGISTERED</text><text fill="#eeeeee" stroke="none" font-family="Arial" font-size="24px" font-style="normal" font-weight="normal" text-decoration="none" x="400" y="30">UNREGISTERED</text><text fill="#eeeeee" stroke="none" font-family="Arial" font-size="24px" font-style="normal" font-weight="normal" text-decoration="none" x="400" y="60">UNREGISTERED</text><text fill="#eeeeee" stroke="none" font-family="Arial" font-size="24px" font-style="normal" font-weight="normal" text-decoration="none" x="400" y="90">UNREGISTERED</text><text fill="#eeeeee" stroke="none" font-family="Arial" font-size="24px" font-style="normal" font-weight="normal" text-decoration="none" x="400" y="120">UNREGISTERED</text><text fill="#eeeeee" stroke="none" font-family="Arial" font-size="24px" font-style="normal" font-weight="normal" text-decoration="none" x="400" y="150">UNREGISTERED</text><text fill="#eeeeee" stroke="none" font-family="Arial" font-size="24px" font-style="normal" font-weight="normal" text-decoration="none" x="400" y="180">UNREGISTERED</text><text fill="#eeeeee" stroke="none" font-family="Arial" font-size="24px" font-style="normal" font-weight="normal" text-decoration="none" x="400" y="210">UNREGISTERED</text><text fill="#eeeeee" stroke="none" font-family="Arial" font-size="24px" font-style="normal" font-weight="normal" text-decoration="none" x="400" y="240">UNREGISTERED</text><text fill="#eeeeee" stroke="none" font-family="Arial" font-size="24px" font-style="normal" font-weight="normal" text-decoration="none" x="400" y="270">UNREGISTERED</text><text fill="#eeeeee" stroke="none" font-family="Arial" font-size="24px" font-style="normal" font-weight="normal" text-decoration="none" x="400" y="300">UNREGISTERED</text><text fill="#eeeeee" stroke="none" font-family="Arial" font-size="24px" font-style="normal" font-weight="normal" text-decoration="none" x="400" y="330">UNREGISTERED</text><text fill="#eeeeee" stroke="none" font-family="Arial" font-size="24px" font-style="normal" font-weight="normal" text-decoration="none" x="400" y="360">UNREGISTERED</text><text fill="#eeeeee" stroke="none" font-family="Arial" font-size="24px" font-style="normal" font-weight="normal" text-decoration="none" x="400" y="390">UNREGISTERED</text><text fill="#eeeeee" stroke="none" font-family="Arial" font-size="24px" font-style="normal" font-weight="normal" text-decoration="none" x="400" y="420">UNREGISTERED</text><text fill="#eeeeee" stroke="none" font-family="Arial" font-size="24px" font-style="normal" font-weight="normal" text-decoration="none" x="400" y="450">UNREGISTERED</text><text fill="#eeeeee" stroke="none" font-family="Arial" font-size="24px" font-style="normal" font-weight="normal" text-decoration="none" x="400" y="480">UNREGISTERED</text><text fill="#eeeeee" stroke="none" font-family="Arial" font-size="24px" font-style="normal" font-weight="normal" text-decoration="none" x="400" y="510">UNREGISTERED</text><text fill="#eeeeee" stroke="none" font-family="Arial" font-size="24px" font-style="normal" font-weight="normal" text-decoration="none" x="400" y="540">UNREGISTERED</text><text fill="#eeeeee" stroke="none" font-family="Arial" font-size="24px" font-style="normal" font-weight="normal" text-decoration="none" x="400" y="570">UNREGISTERED</text><text fill="#eeeeee" stroke="none" font-family="Arial" font-size="24px" font-style="normal" font-weight="normal" text-decoration="none" x="400" y="600">UNREGISTERED</text><text fill="#eeeeee" stroke="none" font-family="Arial" font-size="24px" font-style="normal" font-weight="normal" text-decoration="none" x="400" y="630">UNREGISTERED</text><text fill="#eeeeee" stroke="none" font-family="Arial" font-size="24px" font-style="normal" font-weight="normal" text-decoration="none" x="400" y="660">UNREGISTERED</text><text fill="#eeeeee" stroke="none" font-family="Arial" font-size="24px" font-style="normal" font-weight="normal" text-decoration="none" x="600" y="0">UNREGISTERED</text><text fill="#eeeeee" stroke="none" font-family="Arial" font-size="24px" font-style="normal" font-weight="normal" text-decoration="none" x="600" y="30">UNREGISTERED</text><text fill="#eeeeee" stroke="none" font-family="Arial" font-size="24px" font-style="normal" font-weight="normal" text-decoration="none" x="600" y="60">UNREGISTERED</text><text fill="#eeeeee" stroke="none" font-family="Arial" font-size="24px" font-style="normal" font-weight="normal" text-decoration="none" x="600" y="90">UNREGISTERED</text><text fill="#eeeeee" stroke="none" font-family="Arial" font-size="24px" font-style="normal" font-weight="normal" text-decoration="none" x="600" y="120">UNREGISTERED</text><text fill="#eeeeee" stroke="none" font-family="Arial" font-size="24px" font-style="normal" font-weight="normal" text-decoration="none" x="600" y="150">UNREGISTERED</text><text fill="#eeeeee" stroke="none" font-family="Arial" font-size="24px" font-style="normal" font-weight="normal" text-decoration="none" x="600" y="180">UNREGISTERED</text><text fill="#eeeeee" stroke="none" font-family="Arial" font-size="24px" font-style="normal" font-weight="normal" text-decoration="none" x="600" y="210">UNREGISTERED</text><text fill="#eeeeee" stroke="none" font-family="Arial" font-size="24px" font-style="normal" font-weight="normal" text-decoration="none" x="600" y="240">UNREGISTERED</text><text fill="#eeeeee" stroke="none" font-family="Arial" font-size="24px" font-style="normal" font-weight="normal" text-decoration="none" x="600" y="270">UNREGISTERED</text><text fill="#eeeeee" stroke="none" font-family="Arial" font-size="24px" font-style="normal" font-weight="normal" text-decoration="none" x="600" y="300">UNREGISTERED</text><text fill="#eeeeee" stroke="none" font-family="Arial" font-size="24px" font-style="normal" font-weight="normal" text-decoration="none" x="600" y="330">UNREGISTERED</text><text fill="#eeeeee" stroke="none" font-family="Arial" font-size="24px" font-style="normal" font-weight="normal" text-decoration="none" x="600" y="360">UNREGISTERED</text><text fill="#eeeeee" stroke="none" font-family="Arial" font-size="24px" font-style="normal" font-weight="normal" text-decoration="none" x="600" y="390">UNREGISTERED</text><text fill="#eeeeee" stroke="none" font-family="Arial" font-size="24px" font-style="normal" font-weight="normal" text-decoration="none" x="600" y="420">UNREGISTERED</text><text fill="#eeeeee" stroke="none" font-family="Arial" font-size="24px" font-style="normal" font-weight="normal" text-decoration="none" x="600" y="450">UNREGISTERED</text><text fill="#eeeeee" stroke="none" font-family="Arial" font-size="24px" font-style="normal" font-weight="normal" text-decoration="none" x="600" y="480">UNREGISTERED</text><text fill="#eeeeee" stroke="none" font-family="Arial" font-size="24px" font-style="normal" font-weight="normal" text-decoration="none" x="600" y="510">UNREGISTERED</text><text fill="#eeeeee" stroke="none" font-family="Arial" font-size="24px" font-style="normal" font-weight="normal" text-decoration="none" x="600" y="540">UNREGISTERED</text><text fill="#eeeeee" stroke="none" font-family="Arial" font-size="24px" font-style="normal" font-weight="normal" text-decoration="none" x="600" y="570">UNREGISTERED</text><text fill="#eeeeee" stroke="none" font-family="Arial" font-size="24px" font-style="normal" font-weight="normal" text-decoration="none" x="600" y="600">UNREGISTERED</text><text fill="#eeeeee" stroke="none" font-family="Arial" font-size="24px" font-style="normal" font-weight="normal" text-decoration="none" x="600" y="630">UNREGISTERED</text><text fill="#eeeeee" stroke="none" font-family="Arial" font-size="24px" font-style="normal" font-weight="normal" text-decoration="none" x="600" y="660">UNREGISTERED</text><g transform="translate(-182,-6) scale(1,1)"><rect fill="#C0C0C0" stroke="none" x="199" y="175" width="281.05419921875" height="224" opacity="0.2"/></g><g transform="translate(-182,-6) scale(1,1)"><rect fill="#ffffff" stroke="none" x="192" y="168" width="281.05419921875" height="224"/></g><g transform="translate(-182,-6) scale(1,1)"><path fill="none" stroke="#000000" d="M 192 168 L 473.05419921875 168 L 473.05419921875 392 L 192 392 L 192 168 Z Z" stroke-miterlimit="10"/></g><g transform="translate(-182,-6) scale(1,1)"><path fill="none" stroke="#000000" d="M 192 193 L 473.05419921875 193" stroke-miterlimit="10"/></g><g transform="translate(-182,-6) scale(1,1)"><path fill="none" stroke="#000000" d="M 192 246 L 473.05419921875 246" stroke-miterlimit="10"/></g><g transform="translate(-182,-6) scale(1,1)"><g><path fill="none" stroke="none"/><text fill="#000000" stroke="none" font-family="Arial" font-size="13px" font-style="normal" font-weight="bold" text-decoration="none" x="303.626220703125" y="187.5">ObjectList</text></g></g><g transform="translate(-182,-6) scale(1,1)"><g><path fill="none" stroke="none"/><text fill="#000000" stroke="none" font-family="Arial" font-size="13px" font-style="normal" font-weight="normal" text-decoration="none" x="197" y="210.5">-n: int</text></g></g><g transform="translate(-182,-6) scale(1,1)"><g><path fill="none" stroke="none"/><text fill="#000000" stroke="none" font-family="Arial" font-size="13px" font-style="normal" font-weight="normal" text-decoration="none" x="197" y="225.5">-head: Shape*</text></g></g><g transform="translate(-182,-6) scale(1,1)"><g><path fill="none" stroke="none"/><text fill="#000000" stroke="none" font-family="Arial" font-size="13px" font-style="normal" font-weight="normal" text-decoration="none" x="197" y="240.5">+theShip: Ship*</text></g></g><g transform="translate(-182,-6) scale(1,1)"><g><path fill="none" stroke="none"/><text fill="#000000" stroke="none" font-family="Arial" font-size="13px" font-style="normal" font-weight="normal" text-decoration="none" x="197" y="263.5">+ObjectList()</text></g></g><g transform="translate(-182,-6) scale(1,1)"><g><path fill="none" stroke="none"/><text fill="#000000" stroke="none" font-family="Arial" font-size="13px" font-style="normal" font-weight="normal" text-decoration="none" x="197" y="278.5">+-ObjectList()</text></g></g><g transform="translate(-182,-6) scale(1,1)"><g><path fill="none" stroke="none"/><text fill="#000000" stroke="none" font-family="Arial" font-size="13px" font-style="normal" font-weight="normal" text-decoration="none" x="197" y="293.5">+move()</text></g></g><g transform="translate(-182,-6) scale(1,1)"><g><path fill="none" stroke="none"/><text fill="#000000" stroke="none" font-family="Arial" font-size="13px" font-style="normal" font-weight="normal" text-decoration="none" x="197" y="308.5">+draw()</text></g></g><g transform="translate(-182,-6) scale(1,1)"><g><path fill="none" stroke="none"/><text fill="#000000" stroke="none" font-family="Arial" font-size="13px" font-style="normal" font-weight="normal" text-decoration="none" x="197" y="323.5">+add(s: Shape*)</text></g></g><g transform="translate(-182,-6) scale(1,1)"><g><path fill="none" stroke="none"/><text fill="#000000" stroke="none" font-family="Arial" font-size="13px" font-style="normal" font-weight="normal" text-decoration="none" x="197" y="338.5">+remove(s: Shape*)</text></g></g><g transform="translate(-182,-6) scale(1,1)"><g><path fill="none" stroke="none"/><text fill="#000000" stroke="none" font-family="Arial" font-size="13px" font-style="normal" font-weight="normal" text-decoration="none" x="197" y="353.5">+getShip(): Ship*</text></g></g><g transform="translate(-182,-6) scale(1,1)"><g><path fill="none" stroke="none"/><text fill="#000000" stroke="none" font-family="Arial" font-size="13px" font-style="normal" font-weight="normal" text-decoration="none" x="197" y="368.5">+collisions(bullet: Bullet*, ship: Ship*, float*): int</text></g></g><g transform="translate(-182,-6) scale(1,1)"><g><path fill="none" stroke="none"/><text fill="#000000" stroke="none" font-family="Arial" font-size="13px" font-style="normal" font-weight="normal" text-decoration="none" x="197" y="383.5">+reposition(ship: Ship*)</text></g></g><g transform="translate(-182,-6) scale(1,1)"><rect fill="#C0C0C0" stroke="none" x="615" y="207" width="112" height="175" opacity="0.2"/></g><g transform="translate(-182,-6) scale(1,1)"><rect fill="#ffffff" stroke="none" x="608" y="200" width="112" height="175"/></g><g transform="translate(-182,-6) scale(1,1)"><path fill="none" stroke="#000000" d="M 608 200 L 720 200 L 720 375 L 608 375 L 608 200 Z Z" stroke-miterlimit="10"/></g><g transform="translate(-182,-6) scale(1,1)"><path fill="none" stroke="#000000" d="M 608 225 L 720 225" stroke-miterlimit="10"/></g><g transform="translate(-182,-6) scale(1,1)"><path fill="none" stroke="#000000" d="M 608 323 L 720 323" stroke-miterlimit="10"/></g><g transform="translate(-182,-6) scale(1,1)"><g><path fill="none" stroke="none"/><text fill="#000000" stroke="none" font-family="Arial" font-size="13px" font-style="normal" font-weight="bold" text-decoration="none" x="645.20458984375" y="219.5">Shape</text></g></g><g transform="translate(-182,-6) scale(1,1)"><g><path fill="none" stroke="none"/><text fill="#000000" stroke="none" font-family="Arial" font-size="13px" font-style="normal" font-weight="normal" text-decoration="none" x="613" y="242.5">#pos[3]: float</text></g></g><g transform="translate(-182,-6) scale(1,1)"><g><path fill="none" stroke="none"/><text fill="#000000" stroke="none" font-family="Arial" font-size="13px" font-style="normal" font-weight="normal" text-decoration="none" x="613" y="257.5">#rot[3]: float</text></g></g><g transform="translate(-182,-6) scale(1,1)"><g><path fill="none" stroke="none"/><text fill="#000000" stroke="none" font-family="Arial" font-size="13px" font-style="normal" font-weight="normal" text-decoration="none" x="613" y="272.5">#color[3]: float</text></g></g><g transform="translate(-182,-6) scale(1,1)"><g><path fill="none" stroke="none"/><text fill="#000000" stroke="none" font-family="Arial" font-size="13px" font-style="normal" font-weight="normal" text-decoration="none" x="613" y="287.5">#tspeed: float</text></g></g><g transform="translate(-182,-6) scale(1,1)"><g><path fill="none" stroke="none"/><text fill="#000000" stroke="none" font-family="Arial" font-size="13px" font-style="normal" font-weight="normal" text-decoration="none" x="613" y="302.5">#rspeed: float</text></g></g><g transform="translate(-182,-6) scale(1,1)"><g><path fill="none" stroke="none"/><text fill="#000000" stroke="none" font-family="Arial" font-size="13px" font-style="normal" font-weight="normal" text-decoration="none" x="613" y="317.5">#mynumber: float</text></g></g><g transform="translate(-182,-6) scale(1,1)"><g><path fill="none" stroke="none"/><text fill="#000000" stroke="none" font-family="Arial" font-size="13px" font-style="normal" font-weight="normal" text-decoration="none" x="613" y="340.5">+predraw()</text></g></g><g transform="translate(-182,-6) scale(1,1)"><g><path fill="none" stroke="none"/><text fill="#000000" stroke="none" font-family="Arial" font-size="13px" font-style="normal" font-weight="normal" text-decoration="none" x="613" y="355.5">+postdraw()</text></g></g><g transform="translate(-182,-6) scale(1,1)"><path fill="none" stroke="#000000" d="M 474 283 L 607 286" stroke-miterlimit="10"/></g><g transform="translate(-182,-6) scale(1,1)"><path fill="#FFFFFF" stroke="none" d="M 484.25501788846395 279.0207276912375 L 474 283 L 484.06516312383604 287.43762225640836 L 495.99440543624314 283.4961144083363"/></g><g transform="translate(-182,-6) scale(1,1)"><path fill="none" stroke="#000000" d="M 484.25501788846395 279.0207276912375 L 474 283 L 484.06516312383604 287.43762225640836 L 495.99440543624314 283.4961144083363 L 484.25501788846395 279.0207276912375" stroke-miterlimit="10"/></g><g transform="translate(-182,-6) scale(1,1)"><rect fill="#C0C0C0" stroke="none" x="391" y="471" width="146.6552734375" height="175" opacity="0.2"/></g><g transform="translate(-182,-6) scale(1,1)"><rect fill="#ffffff" stroke="none" x="384" y="464" width="146.6552734375" height="175"/></g><g transform="translate(-182,-6) scale(1,1)"><path fill="none" stroke="#000000" d="M 384 464 L 530.6552734375 464 L 530.6552734375 639 L 384 639 L 384 464 Z Z" stroke-miterlimit="10"/></g><g transform="translate(-182,-6) scale(1,1)"><path fill="none" stroke="#000000" d="M 384 489 L 530.6552734375 489" stroke-miterlimit="10"/></g><g transform="translate(-182,-6) scale(1,1)"><path fill="none" stroke="#000000" d="M 384 512 L 530.6552734375 512" stroke-miterlimit="10"/></g><g transform="translate(-182,-6) scale(1,1)"><g><path fill="none" stroke="none"/><text fill="#000000" stroke="none" font-family="Arial" font-size="13px" font-style="normal" font-weight="bold" text-decoration="none" x="444.318115234375" y="483.5">Ship</text></g></g><g transform="translate(-182,-6) scale(1,1)"><g><path fill="none" stroke="none"/><text fill="#000000" stroke="none" font-family="Arial" font-size="13px" font-style="normal" font-weight="normal" text-decoration="none" x="389" y="506.5">-status: int</text></g></g><g transform="translate(-182,-6) scale(1,1)"><g><path fill="none" stroke="none"/><text fill="#000000" stroke="none" font-family="Arial" font-size="13px" font-style="normal" font-weight="normal" text-decoration="none" x="389" y="529.5">+ship()</text></g></g><g transform="translate(-182,-6) scale(1,1)"><g><path fill="none" stroke="none"/><text fill="#000000" stroke="none" font-family="Arial" font-size="13px" font-style="normal" font-weight="normal" text-decoration="none" x="389" y="544.5">+draw()</text></g></g><g transform="translate(-182,-6) scale(1,1)"><g><path fill="none" stroke="none"/><text fill="#000000" stroke="none" font-family="Arial" font-size="13px" font-style="normal" font-weight="normal" text-decoration="none" x="389" y="559.5">+rotate(float, float, float)</text></g></g><g transform="translate(-182,-6) scale(1,1)"><g><path fill="none" stroke="none"/><text fill="#000000" stroke="none" font-family="Arial" font-size="13px" font-style="normal" font-weight="normal" text-decoration="none" x="389" y="574.5">+fire(): Bullet*</text></g></g><g transform="translate(-182,-6) scale(1,1)"><g><path fill="none" stroke="none"/><text fill="#000000" stroke="none" font-family="Arial" font-size="13px" font-style="normal" font-weight="normal" text-decoration="none" x="389" y="589.5">+thrust(double)</text></g></g><g transform="translate(-182,-6) scale(1,1)"><g><path fill="none" stroke="none"/><text fill="#000000" stroke="none" font-family="Arial" font-size="13px" font-style="normal" font-weight="normal" text-decoration="none" x="389" y="604.5">+hyperjump()</text></g></g><g transform="translate(-182,-6) scale(1,1)"><g><path fill="none" stroke="none"/><text fill="#000000" stroke="none" font-family="Arial" font-size="13px" font-style="normal" font-weight="normal" text-decoration="none" x="389" y="619.5">+getSize(): float</text></g></g><g transform="translate(-182,-6) scale(1,1)"><g><path fill="none" stroke="none"/><text fill="#000000" stroke="none" font-family="Arial" font-size="13px" font-style="normal" font-weight="normal" text-decoration="none" x="389" y="634.5">+resetpos()</text></g></g><g transform="translate(-182,-6) scale(1,1)"><path fill="none" stroke="#000000" d="M 526 463 L 607 360" stroke-miterlimit="10"/></g><g transform="translate(-182,-6) scale(1,1)"><path fill="#FFFFFF" stroke="none" d="M 601.0535234527304 381.18110990181515 L 607 360 L 587.8178996646278 370.7725125538899"/></g><g transform="translate(-182,-6) scale(1,1)"><path fill="none" stroke="#000000" d="M 601.0535234527304 381.18110990181515 L 607 360 L 587.8178996646278 370.7725125538899 L 601.0535234527304 381.18110990181515" stroke-miterlimit="10"/></g><g transform="translate(-182,-6) scale(1,1)"><rect fill="#C0C0C0" stroke="none" x="583" y="511" width="171.21435546875" height="160" opacity="0.2"/></g><g transform="translate(-182,-6) scale(1,1)"><rect fill="#ffffff" stroke="none" x="576" y="504" width="171.21435546875" height="160"/></g><g transform="translate(-182,-6) scale(1,1)"><path fill="none" stroke="#000000" d="M 576 504 L 747.21435546875 504 L 747.21435546875 664 L 576 664 L 576 504 Z Z" stroke-miterlimit="10"/></g><g transform="translate(-182,-6) scale(1,1)"><path fill="none" stroke="#000000" d="M 576 529 L 747.21435546875 529" stroke-miterlimit="10"/></g><g transform="translate(-182,-6) scale(1,1)"><path fill="none" stroke="#000000" d="M 576 567 L 747.21435546875 567" stroke-miterlimit="10"/></g><g transform="translate(-182,-6) scale(1,1)"><g><path fill="none" stroke="none"/><text fill="#000000" stroke="none" font-family="Arial" font-size="13px" font-style="normal" font-weight="bold" text-decoration="none" x="637.76220703125" y="523.5">Asteroid</text></g></g><g transform="translate(-182,-6) scale(1,1)"><g><path fill="none" stroke="none"/><text fill="#000000" stroke="none" font-family="Arial" font-size="13px" font-style="normal" font-weight="normal" text-decoration="none" x="581" y="546.5">-size: int</text></g></g><g transform="translate(-182,-6) scale(1,1)"><g><path fill="none" stroke="none"/><text fill="#000000" stroke="none" font-family="Arial" font-size="13px" font-style="normal" font-weight="normal" text-decoration="none" x="581" y="561.5">-type: int</text></g></g><g transform="translate(-182,-6) scale(1,1)"><g><path fill="none" stroke="none"/><text fill="#000000" stroke="none" font-family="Arial" font-size="13px" font-style="normal" font-weight="normal" text-decoration="none" x="581" y="584.5">+split(): Asteroid*</text></g></g><g transform="translate(-182,-6) scale(1,1)"><g><path fill="none" stroke="none"/><text fill="#000000" stroke="none" font-family="Arial" font-size="13px" font-style="normal" font-weight="normal" text-decoration="none" x="581" y="599.5">+Asteroid(int)</text></g></g><g transform="translate(-182,-6) scale(1,1)"><g><path fill="none" stroke="none"/><text fill="#000000" stroke="none" font-family="Arial" font-size="13px" font-style="normal" font-weight="normal" text-decoration="none" x="581" y="614.5">+Asteroid(int, int, float, float)</text></g></g><g transform="translate(-182,-6) scale(1,1)"><g><path fill="none" stroke="none"/><text fill="#000000" stroke="none" font-family="Arial" font-size="13px" font-style="normal" font-weight="normal" text-decoration="none" x="581" y="629.5">+draw()</text></g></g><g transform="translate(-182,-6) scale(1,1)"><g><path fill="none" stroke="none"/><text fill="#000000" stroke="none" font-family="Arial" font-size="13px" font-style="normal" font-weight="normal" text-decoration="none" x="581" y="644.5">+getSize(): float</text></g></g><g transform="translate(-182,-6) scale(1,1)"><g><path fill="none" stroke="none"/><text fill="#000000" stroke="none" font-family="Arial" font-size="13px" font-style="normal" font-weight="normal" text-decoration="none" x="581" y="659.5">+reposition()</text></g></g><g transform="translate(-182,-6) scale(1,1)"><path fill="none" stroke="#000000" d="M 662 503 L 663 376" stroke-miterlimit="10"/></g><g transform="translate(-182,-6) scale(1,1)"><path fill="#FFFFFF" stroke="none" d="M 671.2587373708875 396.3910092207008 L 663 376 L 654.4211883037984 396.2584300941883"/></g><g transform="translate(-182,-6) scale(1,1)"><path fill="none" stroke="#000000" d="M 671.2587373708875 396.3910092207008 L 663 376 L 654.4211883037984 396.2584300941883 L 671.2587373708875 396.3910092207008" stroke-miterlimit="10"/></g><g transform="translate(-182,-6) scale(1,1)"><rect fill="#C0C0C0" stroke="none" x="820.21435546875" y="327" width="146.6552734375" height="160" opacity="0.2"/></g><g transform="translate(-182,-6) scale(1,1)"><rect fill="#ffffff" stroke="none" x="813.21435546875" y="320" width="146.6552734375" height="160"/></g><g transform="translate(-182,-6) scale(1,1)"><path fill="none" stroke="#000000" d="M 813.21435546875 320 L 959.86962890625 320 L 959.86962890625 480 L 813.21435546875 480 L 813.21435546875 320 Z Z" stroke-miterlimit="10"/></g><g transform="translate(-182,-6) scale(1,1)"><path fill="none" stroke="#000000" d="M 813.21435546875 345 L 959.86962890625 345" stroke-miterlimit="10"/></g><g transform="translate(-182,-6) scale(1,1)"><path fill="none" stroke="#000000" d="M 813.21435546875 368 L 959.86962890625 368" stroke-miterlimit="10"/></g><g transform="translate(-182,-6) scale(1,1)"><g><path fill="none" stroke="none"/><text fill="#000000" stroke="none" font-family="Arial" font-size="13px" font-style="normal" font-weight="bold" text-decoration="none" x="872.08837890625" y="339.5">Alien</text></g></g><g transform="translate(-182,-6) scale(1,1)"><g><path fill="none" stroke="none"/><text fill="#000000" stroke="none" font-family="Arial" font-size="13px" font-style="normal" font-weight="normal" text-decoration="none" x="818.21435546875" y="362.5">-status: int</text></g></g><g transform="translate(-182,-6) scale(1,1)"><g><path fill="none" stroke="none"/><text fill="#000000" stroke="none" font-family="Arial" font-size="13px" font-style="normal" font-weight="normal" text-decoration="none" x="818.21435546875" y="385.5">+Alien()</text></g></g><g transform="translate(-182,-6) scale(1,1)"><g><path fill="none" stroke="none"/><text fill="#000000" stroke="none" font-family="Arial" font-size="13px" font-style="normal" font-weight="normal" text-decoration="none" x="818.21435546875" y="400.5">+draw()</text></g></g><g transform="translate(-182,-6) scale(1,1)"><g><path fill="none" stroke="none"/><text fill="#000000" stroke="none" font-family="Arial" font-size="13px" font-style="normal" font-weight="normal" text-decoration="none" x="818.21435546875" y="415.5">+rotate(float, float, float)</text></g></g><g transform="translate(-182,-6) scale(1,1)"><g><path fill="none" stroke="none"/><text fill="#000000" stroke="none" font-family="Arial" font-size="13px" font-style="normal" font-weight="normal" text-decoration="none" x="818.21435546875" y="430.5">+fire(): Bullet*</text></g></g><g transform="translate(-182,-6) scale(1,1)"><g><path fill="none" stroke="none"/><text fill="#000000" stroke="none" font-family="Arial" font-size="13px" font-style="normal" font-weight="normal" text-decoration="none" x="818.21435546875" y="445.5">+move(double)</text></g></g><g transform="translate(-182,-6) scale(1,1)"><g><path fill="none" stroke="none"/><text fill="#000000" stroke="none" font-family="Arial" font-size="13px" font-style="normal" font-weight="normal" text-decoration="none" x="818.21435546875" y="460.5">+getSize(): float</text></g></g><g transform="translate(-182,-6) scale(1,1)"><g><path fill="none" stroke="none"/><text fill="#000000" stroke="none" font-family="Arial" font-size="13px" font-style="normal" font-weight="normal" text-decoration="none" x="818.21435546875" y="475.5">+resetpos()</text></g></g><g transform="translate(-182,-6) scale(1,1)"><path fill="none" stroke="#000000" d="M 812 362 L 721 316" stroke-miterlimit="10"/></g><g transform="translate(-182,-6) scale(1,1)"><path fill="#FFFFFF" stroke="none" d="M 742.9376014228883 317.65579099239295 L 721 316 L 735.3414056901433 332.68304776804064"/></g><g transform="translate(-182,-6) scale(1,1)"><path fill="none" stroke="#000000" d="M 742.9376014228883 317.65579099239295 L 721 316 L 735.3414056901433 332.68304776804064 L 742.9376014228883 317.65579099239295" stroke-miterlimit="10"/></g><g transform="translate(-182,-6) scale(1,1)"><rect fill="#C0C0C0" stroke="none" x="791" y="119" width="177.72705078125" height="100" opacity="0.2"/></g><g transform="translate(-182,-6) scale(1,1)"><rect fill="#ffffff" stroke="none" x="784" y="112" width="177.72705078125" height="100"/></g><g transform="translate(-182,-6) scale(1,1)"><path fill="none" stroke="#000000" d="M 784 112 L 961.72705078125 112 L 961.72705078125 212 L 784 212 L 784 112 Z Z" stroke-miterlimit="10"/></g><g transform="translate(-182,-6) scale(1,1)"><path fill="none" stroke="#000000" d="M 784 137 L 961.72705078125 137" stroke-miterlimit="10"/></g><g transform="translate(-182,-6) scale(1,1)"><path fill="none" stroke="#000000" d="M 784 160 L 961.72705078125 160" stroke-miterlimit="10"/></g><g transform="translate(-182,-6) scale(1,1)"><g><path fill="none" stroke="none"/><text fill="#000000" stroke="none" font-family="Arial" font-size="13px" font-style="normal" font-weight="bold" text-decoration="none" x="856.60400390625" y="131.5">Bullet</text></g></g><g transform="translate(-182,-6) scale(1,1)"><g><path fill="none" stroke="none"/><text fill="#000000" stroke="none" font-family="Arial" font-size="13px" font-style="normal" font-weight="normal" text-decoration="none" x="789" y="154.5">-status: int</text></g></g><g transform="translate(-182,-6) scale(1,1)"><g><path fill="none" stroke="none"/><text fill="#000000" stroke="none" font-family="Arial" font-size="13px" font-style="normal" font-weight="normal" text-decoration="none" x="789" y="177.5">+Bullet(float, float, float, float)</text></g></g><g transform="translate(-182,-6) scale(1,1)"><g><path fill="none" stroke="none"/><text fill="#000000" stroke="none" font-family="Arial" font-size="13px" font-style="normal" font-weight="normal" text-decoration="none" x="789" y="192.5">+draw()</text></g></g><g transform="translate(-182,-6) scale(1,1)"><g><path fill="none" stroke="none"/><text fill="#000000" stroke="none" font-family="Arial" font-size="13px" font-style="normal" font-weight="normal" text-decoration="none" x="789" y="207.5">+getSize(): float</text></g></g><g transform="translate(-182,-6) scale(1,1)"><path fill="none" stroke="#000000" d="M 787 213 L 721 253" stroke-miterlimit="10"/></g><g transform="translate(-182,-6) scale(1,1)"><path fill="#FFFFFF" stroke="none" d="M 734.0185944483204 235.2653954487234 L 721 253 L 742.7457955557944 249.66527727605546"/></g><g transform="translate(-182,-6) scale(1,1)"><path fill="none" stroke="#000000" d="M 734.0185944483204 235.2653954487234 L 721 253 L 742.7457955557944 249.66527727605546 L 734.0185944483204 235.2653954487234" stroke-miterlimit="10"/></g><g transform="translate(-182,-6) scale(1,1)"><rect fill="#C0C0C0" stroke="none" x="623" y="23" width="105.45263671875" height="115" opacity="0.2"/></g><g transform="translate(-182,-6) scale(1,1)"><rect fill="#ffffff" stroke="none" x="616" y="16" width="105.45263671875" height="115"/></g><g transform="translate(-182,-6) scale(1,1)"><path fill="none" stroke="#000000" d="M 616 16 L 721.45263671875 16 L 721.45263671875 131 L 616 131 L 616 16 Z Z" stroke-miterlimit="10"/></g><g transform="translate(-182,-6) scale(1,1)"><path fill="none" stroke="#000000" d="M 616 41 L 721.45263671875 41" stroke-miterlimit="10"/></g><g transform="translate(-182,-6) scale(1,1)"><path fill="none" stroke="#000000" d="M 616 79 L 721.45263671875 79" stroke-miterlimit="10"/></g><g transform="translate(-182,-6) scale(1,1)"><g><path fill="none" stroke="none"/><text fill="#000000" stroke="none" font-family="Arial" font-size="13px" font-style="normal" font-weight="bold" text-decoration="none" x="650.667236328125" y="35.5">Flame</text></g></g><g transform="translate(-182,-6) scale(1,1)"><g><path fill="none" stroke="none"/><text fill="#000000" stroke="none" font-family="Arial" font-size="13px" font-style="normal" font-weight="normal" text-decoration="none" x="621" y="58.5">+size: int</text></g></g><g transform="translate(-182,-6) scale(1,1)"><g><path fill="none" stroke="none"/><text fill="#000000" stroke="none" font-family="Arial" font-size="13px" font-style="normal" font-weight="normal" text-decoration="none" x="621" y="73.5">+dir: int</text></g></g><g transform="translate(-182,-6) scale(1,1)"><g><path fill="none" stroke="none"/><text fill="#000000" stroke="none" font-family="Arial" font-size="13px" font-style="normal" font-weight="normal" text-decoration="none" x="621" y="96.5">+Flame(p*: float)</text></g></g><g transform="translate(-182,-6) scale(1,1)"><g><path fill="none" stroke="none"/><text fill="#000000" stroke="none" font-family="Arial" font-size="13px" font-style="normal" font-weight="normal" text-decoration="none" x="621" y="111.5">+draw()</text></g></g><g transform="translate(-182,-6) scale(1,1)"><g><path fill="none" stroke="none"/><text fill="#000000" stroke="none" font-family="Arial" font-size="13px" font-style="normal" font-weight="normal" text-decoration="none" x="621" y="126.5">+getSize()</text></g></g><g transform="translate(-182,-6) scale(1,1)"><path fill="none" stroke="#000000" d="M 667 132 L 666 199" stroke-miterlimit="10"/></g><g transform="translate(-182,-6) scale(1,1)"><path fill="#FFFFFF" stroke="none" d="M 657.8852317165548 178.5512705601059 L 666 199 L 674.7214275726164 178.80255706542027"/></g><g transform="translate(-182,-6) scale(1,1)"><path fill="none" stroke="#000000" d="M 657.8852317165548 178.5512705601059 L 666 199 L 674.7214275726164 178.80255706542027 L 657.8852317165548 178.5512705601059" stroke-miterlimit="10"/></g><g transform="translate(-182,-6) scale(1,1)"><path fill="none" stroke="#000000" d="M 457 464 L 457 443 L 320 443 L 320 392" stroke-miterlimit="10"/></g><g transform="translate(-182,-6) scale(1,1)"><path fill="#FFFFFF" stroke="none" d="M 324.209517756016 402.16267485762415 L 320 392 L 315.790482243984 402.16267485762415 L 320 414"/></g><g transform="translate(-182,-6) scale(1,1)"><path fill="none" stroke="#000000" d="M 324.209517756016 402.16267485762415 L 320 392 L 315.790482243984 402.16267485762415 L 320 414 L 324.209517756016 402.16267485762415" stroke-miterlimit="10"/></g><g transform="translate(-182,-6) scale(1,1)"><g><path fill="none" stroke="none"/><text fill="#000000" stroke="none" font-family="Arial" font-size="13px" font-style="normal" font-weight="normal" text-decoration="none" x="573" y="282">0...1</text></g></g><g transform="translate(-182,-6) scale(1,1)"><g><path fill="none" stroke="none"/><text fill="#000000" stroke="none" font-family="Arial" font-size="13px" font-style="normal" font-weight="normal" text-decoration="none" x="565" y="306">-head</text></g></g><g transform="translate(-182,-6) scale(1,1)"><g><path fill="none" stroke="none"/><text fill="#000000" stroke="none" font-family="Arial" font-size="13px" font-style="normal" font-weight="normal" text-decoration="none" x="469" y="450">0...1</text></g></g></g></svg>